<svg width="14" height="9" viewBox="0 0 14 9" fill="none" xmlns="http://www.w3.org/2000/svg">
<path d="M2.7027 0.619815L6.99915 5.00012L11.2955 0.619814C11.6173 0.304726 11.7781 0.147182 11.9576 0.0743846C12.1968 -0.022679 12.4657 -0.022679 12.7049 0.0743846C12.8844 0.147182 13.0453 0.304727 13.367 0.619806L13.367 0.61982C13.6887 0.934904 13.8496 1.09245 13.9239 1.2682C14.023 1.50253 14.023 1.76582 13.9239 2.00015C13.8496 2.1759 13.6887 2.33344 13.367 2.64853L13.367 2.64853L8.25746 7.66298C8.19378 7.72721 8.12035 7.79913 8.03581 7.88193C7.71408 8.19701 7.55322 8.35456 7.37377 8.42735C7.1345 8.52442 6.86566 8.52442 6.62639 8.42735C6.44694 8.35456 6.28608 8.19701 5.96435 7.88193L0.63125 2.64853C0.309525 2.33345 0.148663 2.1759 0.0743308 2.00015C-0.0247769 1.76582 -0.0247769 1.50253 0.0743308 1.2682C0.148661 1.09245 0.309536 0.934892 0.631256 0.619809L0.631262 0.619803C0.95298 0.304723 1.11384 0.147182 1.29329 0.0743846C1.53256 -0.022679 1.8014 -0.0226771 2.04066 0.0743865C2.22011 0.147183 2.38098 0.304731 2.7027 0.619815Z" fill="#2E3192"/>
</svg>
