<svg width="48" height="40" viewBox="0 0 48 40" fill="none" xmlns="http://www.w3.org/2000/svg">
<rect width="48" height="40" rx="12" fill="#F2F5FD"/>
<mask id="mask0_309_17113" style="mask-type:alpha" maskUnits="userSpaceOnUse" x="12" y="8" width="24" height="24">
<g clip-path="url(#clip0_309_17113)">
<path d="M23.99 25H24M21 17C21.235 16.332 21.7018 15.7723 22.3123 15.4134C22.9229 15.0546 23.6407 14.9234 24.3387 15.0432C25.0367 15.1629 25.6698 15.5258 26.1258 16.0675C26.5819 16.6093 26.8315 17.295 26.8304 18.0032C26.8304 20.0023 24 21.5 24 21.5M35 19.9661C35.0044 21.6689 34.6066 23.3486 33.8389 24.8685C32.9286 26.6899 31.5292 28.2218 29.7975 29.2927C28.0658 30.3637 26.0701 30.9313 24.0339 30.9321C22.3311 30.9365 20.6514 30.5387 19.1315 29.771L13 31L14.229 24.8685C13.4613 23.3486 13.0635 21.6689 13.0679 19.9661C13.0687 17.9299 13.6363 15.9342 14.7073 14.2025C15.7782 12.4708 17.3101 11.0714 19.1315 10.1611C20.6514 9.39344 22.3311 8.9956 24.0339 9.00004H24.679C27.3681 9.14839 29.9079 10.2834 31.8123 12.1877C33.7166 14.0921 34.8516 16.6319 35 19.321V19.9661Z" stroke="#151515" stroke-width="2" stroke-linecap="round" stroke-linejoin="round"/>
</g>
</mask>
<g mask="url(#mask0_309_17113)">
<rect x="12" y="8" width="24" height="24" fill="#2E3192"/>
</g>
<defs>
<clipPath id="clip0_309_17113">
<rect width="24" height="24" fill="white" transform="translate(12 8)"/>
</clipPath>
</defs>
</svg>
