<svg width="188" height="60" viewBox="0 0 188 60" fill="none" xmlns="http://www.w3.org/2000/svg">
<path d="M83.2437 37.5871V15.8552H102.094V37.5871H97.3551V20.3473H87.9825V37.5871H83.2437Z" fill="black"/>
<path d="M110.114 24.3532C110.459 23.7655 111.293 23.2661 112.014 22.8494C112.732 22.4355 113.64 22.2258 114.734 22.2258C115.687 22.2258 116.598 22.419 117.468 22.8025C118.338 23.1888 119.103 23.7269 119.76 24.4277C120.417 25.1258 120.939 25.9591 121.326 26.9304C121.709 27.9016 121.903 28.975 121.903 30.1477C121.903 31.3203 121.709 32.3937 121.326 33.3649C120.942 34.3362 120.42 35.1695 119.76 35.8676C119.103 36.5657 118.338 37.1065 117.468 37.49C116.598 37.8736 115.687 38.0667 114.734 38.0667C113.64 38.0667 112.734 37.8598 112.014 37.4431C111.296 37.0292 110.763 36.527 110.42 35.9393V44.1343H105.864V22.7142H110.117V24.3532H110.114ZM113.729 26.4778C113.243 26.4778 112.781 26.5634 112.345 26.7345C111.909 26.9055 111.525 27.1539 111.191 27.4794C110.857 27.8023 110.594 28.1886 110.401 28.6328C110.208 29.0771 110.111 29.5848 110.111 30.1504C110.111 30.7161 110.208 31.2265 110.401 31.6846C110.594 32.1398 110.857 32.5234 111.191 32.8379C111.525 33.1525 111.909 33.3953 112.345 33.5664C112.781 33.7374 113.24 33.8257 113.729 33.8257C114.217 33.8257 114.676 33.7402 115.112 33.5664C115.548 33.3953 115.932 33.1525 116.266 32.8379C116.601 32.5234 116.863 32.1398 117.056 31.6846C117.25 31.2293 117.346 30.7188 117.346 30.1504C117.346 29.582 117.25 29.0771 117.056 28.6328C116.863 28.1886 116.601 27.8023 116.266 27.4794C115.932 27.1566 115.548 26.9083 115.112 26.7345C114.676 26.5634 114.217 26.4778 113.729 26.4778Z" fill="black"/>
<path d="M131.621 22.2283C132.775 22.2283 133.844 22.4242 134.824 22.8215C135.807 23.2161 136.658 23.7624 137.376 24.4605C138.094 25.1586 138.651 25.9947 139.046 26.9632C139.441 27.9344 139.64 28.9967 139.64 30.1501C139.64 31.3035 139.441 32.3658 139.046 33.337C138.651 34.3083 138.094 35.1416 137.376 35.8397C136.658 36.5378 135.807 37.0841 134.824 37.4787C133.841 37.8732 132.775 38.0719 131.621 38.0719C130.466 38.0719 129.398 37.876 128.417 37.4787C127.434 37.0841 126.584 36.5378 125.866 35.8397C125.148 35.1416 124.59 34.3083 124.195 33.337C123.8 32.3658 123.601 31.3035 123.601 30.1501C123.601 28.9967 123.8 27.9344 124.195 26.9632C124.59 25.9919 125.148 25.1586 125.866 24.4605C126.584 23.7624 127.434 23.2161 128.417 22.8215C129.4 22.4269 130.469 22.2283 131.621 22.2283ZM131.621 33.8227C132.087 33.8227 132.526 33.7371 132.941 33.5633C133.355 33.3922 133.725 33.1494 134.051 32.8348C134.374 32.5203 134.628 32.1368 134.81 31.6815C134.992 31.2262 135.084 30.7157 135.084 30.1473C135.084 29.5789 134.992 29.074 134.81 28.6297C134.628 28.1855 134.374 27.7992 134.051 27.4764C133.728 27.1535 133.358 26.9052 132.941 26.7314C132.526 26.5603 132.085 26.4748 131.621 26.4748C131.157 26.4748 130.715 26.5603 130.301 26.7314C129.886 26.9024 129.516 27.1508 129.19 27.4764C128.867 27.7992 128.613 28.1855 128.431 28.6297C128.249 29.074 128.158 29.5817 128.158 30.1473C128.158 30.713 128.249 31.2234 128.431 31.6815C128.613 32.1368 128.867 32.5203 129.19 32.8348C129.514 33.1494 129.884 33.3922 130.301 33.5633C130.715 33.7344 131.157 33.8227 131.621 33.8227Z" fill="black"/>
<path d="M145.077 37.5865V26.9634H140.551V22.7141H154.16V26.9634H149.634V37.5865H145.077Z" fill="black"/>
<path d="M163.091 22.2283C164.245 22.2283 165.314 22.4242 166.294 22.8215C167.278 23.2161 168.128 23.7624 168.846 24.4605C169.564 25.1586 170.122 25.9947 170.517 26.9632C170.912 27.9344 171.111 28.9967 171.111 30.1501C171.111 31.3035 170.912 32.3658 170.517 33.337C170.122 34.3083 169.564 35.1416 168.846 35.8397C168.128 36.5378 167.278 37.0841 166.294 37.4787C165.311 37.8732 164.245 38.0719 163.091 38.0719C161.937 38.0719 160.868 37.876 159.888 37.4787C158.905 37.0841 158.054 36.5378 157.336 35.8397C156.618 35.1416 156.06 34.3083 155.665 33.337C155.27 32.3658 155.072 31.3035 155.072 30.1501C155.072 28.9967 155.27 27.9344 155.665 26.9632C156.06 25.9919 156.618 25.1586 157.336 24.4605C158.054 23.7624 158.905 23.2161 159.888 22.8215C160.871 22.4269 161.939 22.2283 163.091 22.2283ZM163.091 33.8227C163.558 33.8227 163.997 33.7371 164.411 33.5633C164.825 33.3922 165.195 33.1494 165.521 32.8348C165.844 32.5203 166.098 32.1368 166.281 31.6815C166.463 31.2262 166.554 30.7157 166.554 30.1473C166.554 29.5789 166.463 29.074 166.281 28.6297C166.098 28.1855 165.844 27.7992 165.521 27.4764C165.198 27.1535 164.828 26.9052 164.411 26.7314C163.997 26.5603 163.555 26.4748 163.091 26.4748C162.627 26.4748 162.185 26.5603 161.771 26.7314C161.357 26.9024 160.987 27.1508 160.661 27.4764C160.338 27.7992 160.084 28.1855 159.901 28.6297C159.719 29.074 159.628 29.5817 159.628 30.1473C159.628 30.713 159.719 31.2234 159.901 31.6815C160.084 32.1368 160.338 32.5203 160.661 32.8348C160.984 33.1494 161.354 33.3922 161.771 33.5633C162.185 33.7344 162.627 33.8227 163.091 33.8227Z" fill="black"/>
<path d="M183.443 37.5865V32.0928H177.915V37.5865H173.358V22.7141H177.915V27.8436H183.443V22.7141H188V37.5865H183.443Z" fill="black"/>
<path d="M47.1671 0H11.2505L0 60L20.2835 55.9549L26.2015 24.0028C26.4224 22.8273 25.7237 21.6767 24.5805 21.3263L19.6042 19.8059C18.8006 19.3203 19.1457 18.0842 20.0847 18.0842H40.208C42.6575 18.0842 44.5077 20.3081 44.0548 22.7142L38.6947 52.2824L58.8732 48.2566L64.0843 20.4157C66.1002 9.81467 57.9647 0 47.1671 0Z" fill="url(#paint0_linear_259_4919)"/>
<defs>
<linearGradient id="paint0_linear_259_4919" x1="0" y1="29.9986" x2="64.3936" y2="29.9986" gradientUnits="userSpaceOnUse">
<stop stop-color="#2E3192"/>
<stop offset="1" stop-color="#00AEEF"/>
</linearGradient>
</defs>
</svg>
